<svg width="111" height="24" viewBox="0 0 111 24" fill="none" xmlns="http://www.w3.org/2000/svg">
<rect width="111" height="24" fill="#1E1E1E"/>
<path d="M28 9.43384L26.7593 13.6956L25.9672 12.9053L21.7839 16.8567L18.7806 19.6931L16.3251 22.0122L14.0129 19.6931L12.9229 18.5995L11.5739 17.2455L11.1695 16.8406L8.95471 14.6178L8.10371 15.4402L7.81883 15.715L6.46975 17.0208L5.11698 18.3284L3.72379 19.6752L3.7054 19.6931L1.71118 21.6197L0 23.2752L2.72392 19.6931L6.46975 14.7641L7.81883 12.9909L8.98595 11.455L11.5739 14.0524L12.6803 15.1637L12.9229 15.4064L16.3747 18.8671L16.6798 18.5782L18.0289 17.3044L18.6281 16.7389L20.3723 15.0906L21.7839 13.758L24.3718 11.314L23.5778 10.5238L28 9.43384Z" fill="#2DFF34"/>
<path d="M6.46975 9.43384V14.7641L2.72392 19.6931H2.71289V9.43384H6.46975Z" fill="#00B7FF"/>
<path d="M11.5739 6.32811V14.0524L8.98597 11.455L7.81885 12.991V6.32811H11.5739Z" fill="#00B7FF"/>
<path d="M16.6798 3.81097V18.5782L16.3747 18.8672L12.923 15.4064V3.81097H16.6798Z" fill="#00B7FF"/>
<path d="M21.7839 0.724792V13.7581L20.3724 15.0906L18.6281 16.739L18.0289 17.3045V0.724792H21.7839Z" fill="#00B7FF"/>
<path d="M31.2612 4.96V4.4H36.7812C37.8478 4.4 38.6945 4.54667 39.3212 4.84C39.9478 5.13333 40.3945 5.52 40.6612 6C40.9412 6.48 41.0812 7.01333 41.0812 7.6V8.14C41.0812 8.83333 40.8612 9.43333 40.4212 9.94C39.9945 10.4333 39.3678 10.7867 38.5412 11C39.5545 11.1733 40.3278 11.5333 40.8612 12.08C41.4078 12.6267 41.6812 13.3133 41.6812 14.14V14.7C41.6812 15.3 41.5412 15.8533 41.2612 16.36C40.9812 16.8533 40.5145 17.2533 39.8612 17.56C39.2212 17.8533 38.3612 18 37.2812 18H31.2612V17.44L32.3612 17.3C32.5745 17.2733 32.7012 17.22 32.7412 17.14C32.7812 17.0467 32.8012 16.7733 32.8012 16.32V6.08C32.8012 5.62667 32.7812 5.36 32.7412 5.28C32.7012 5.18667 32.5745 5.12667 32.3612 5.1L31.2612 4.96ZM36.7812 5.1H35.2012V10.7H36.7812C37.3545 10.7 37.7878 10.5067 38.0812 10.12C38.3745 9.72 38.5212 9.09333 38.5212 8.24V7.6C38.5212 6.73333 38.3745 6.1 38.0812 5.7C37.7878 5.3 37.3545 5.1 36.7812 5.1ZM37.2812 11.4H35.2012V17.3H37.2812C37.8812 17.3 38.3345 17.1 38.6412 16.7C38.9612 16.2867 39.1212 15.62 39.1212 14.7V14.04C39.1212 12.28 38.5078 11.4 37.2812 11.4ZM54.3254 17.44V18H50.6054V16.24C50.2321 16.92 49.7521 17.42 49.1654 17.74C48.5787 18.0467 47.9854 18.2 47.3854 18.2C46.4387 18.2 45.6854 17.8867 45.1254 17.26C44.5654 16.62 44.2854 15.7333 44.2854 14.6V9.54C44.2854 9.08667 44.2654 8.82 44.2254 8.74C44.1854 8.64667 44.0587 8.58667 43.8454 8.56L42.7454 8.42V7.86H46.5854V14.58C46.5854 15.5 46.7121 16.1733 46.9654 16.6C47.2321 17.0133 47.6121 17.22 48.1054 17.22C48.3187 17.22 48.5654 17.1667 48.8454 17.06C49.1387 16.94 49.4321 16.7333 49.7254 16.44C50.0187 16.1333 50.2721 15.7 50.4854 15.14V9.54C50.4854 9.08667 50.4654 8.81333 50.4254 8.72C50.3854 8.62667 50.2587 8.57333 50.0454 8.56L48.5454 8.42V7.86H52.7854V16.32C52.7854 16.7733 52.8054 17.0467 52.8454 17.14C52.8854 17.22 53.0121 17.2733 53.2254 17.3L54.3254 17.44ZM54.7743 3.76V3.2H58.6143V16.32C58.6143 16.7733 58.6343 17.0467 58.6743 17.14C58.7143 17.22 58.841 17.2733 59.0543 17.3L60.1543 17.44V18H54.7743V17.44L55.8743 17.3C56.0876 17.2733 56.2143 17.22 56.2543 17.14C56.2943 17.0467 56.3143 16.7733 56.3143 16.32V4.88C56.3143 4.42667 56.2943 4.16 56.2543 4.08C56.2143 3.98667 56.0876 3.92667 55.8743 3.9L54.7743 3.76ZM60.5899 3.76V3.2H64.4299V16.32C64.4299 16.7733 64.4499 17.0467 64.4899 17.14C64.5299 17.22 64.6566 17.2733 64.8699 17.3L65.9699 17.44V18H60.5899V17.44L61.6899 17.3C61.9033 17.2733 62.0299 17.22 62.0699 17.14C62.1099 17.0467 62.1299 16.7733 62.1299 16.32V4.88C62.1299 4.42667 62.1099 4.16 62.0699 4.08C62.0299 3.98667 61.9033 3.92667 61.6899 3.9L60.5899 3.76ZM79.9949 9.54L77.8149 18H75.9949L73.5949 9.96L71.1749 18H69.5149L67.3549 9.54C67.2749 9.23333 67.2083 9.02 67.1549 8.9C67.1149 8.76667 67.0616 8.68 66.9949 8.64C66.9283 8.6 66.8283 8.57333 66.6949 8.56L65.5949 8.42V7.86H70.9149V8.42L69.8149 8.56C69.6016 8.58667 69.4816 8.64667 69.4549 8.74C69.4283 8.82 69.4749 9.08667 69.5949 9.54L71.1549 15.56L73.4549 7.86H75.2149L77.5949 15.9L79.2149 9.54C79.3349 9.08667 79.3816 8.82 79.3549 8.74C79.3283 8.64667 79.2083 8.58667 78.9949 8.56L77.8949 8.42V7.86H81.7549V8.42L80.6549 8.56C80.5216 8.57333 80.4216 8.6 80.3549 8.64C80.2883 8.68 80.2283 8.76667 80.1749 8.9C80.1349 9.02 80.0749 9.23333 79.9949 9.54ZM91.7213 17.5C91.508 17.7 91.248 17.8667 90.9413 18C90.648 18.1333 90.288 18.2 89.8613 18.2C89.3147 18.2 88.8547 18.08 88.4813 17.84C88.1213 17.6 87.8813 17.26 87.7613 16.82C87.3213 17.3 86.8347 17.6533 86.3013 17.88C85.7813 18.0933 85.248 18.2 84.7013 18.2C83.7813 18.2 83.0947 17.9467 82.6413 17.44C82.188 16.92 81.9613 16.2733 81.9613 15.5C81.9613 14.7133 82.248 14.08 82.8213 13.6C83.3947 13.1067 84.408 12.86 85.8613 12.86H87.6813V11.24C87.6813 10.1333 87.5347 9.38 87.2413 8.98C86.9613 8.56667 86.568 8.36 86.0613 8.36C85.728 8.36 85.4213 8.44667 85.1413 8.62C84.8613 8.78 84.6613 9.08667 84.5413 9.54C84.4347 9.98 84.4547 10.62 84.6013 11.46L82.4013 11.14C82.2947 10.5267 82.3613 9.96 82.6013 9.44C82.8547 8.90667 83.2747 8.48 83.8613 8.16C84.448 7.82667 85.1947 7.66 86.1013 7.66C87.128 7.66 87.9213 7.82667 88.4813 8.16C89.0413 8.49333 89.428 8.93333 89.6413 9.48C89.868 10.0267 89.9813 10.6133 89.9813 11.24V15.86C89.9813 16.54 90.0413 16.9667 90.1613 17.14C90.2813 17.3133 90.4147 17.4 90.5613 17.4C90.8013 17.4 91.068 17.26 91.3613 16.98L91.7213 17.5ZM85.5813 17.14C85.928 17.14 86.268 17.0533 86.6013 16.88C86.948 16.6933 87.308 16.3533 87.6813 15.86V13.56H86.1813C85.528 13.56 85.0547 13.7133 84.7613 14.02C84.468 14.3267 84.3213 14.8067 84.3213 15.46C84.3213 15.9933 84.428 16.4067 84.6413 16.7C84.8547 16.9933 85.168 17.14 85.5813 17.14ZM100.18 9.54L97.3399 18H95.5199L92.6799 9.54C92.5866 9.23333 92.5066 9.02 92.4399 8.9C92.3866 8.76667 92.3199 8.68 92.2399 8.64C92.1733 8.6 92.0666 8.57333 91.9199 8.56L90.8199 8.42V7.86H96.2199V8.42L95.1199 8.56C94.9199 8.58667 94.8133 8.64 94.7999 8.72C94.7866 8.8 94.8533 9.07333 94.9999 9.54L97.1999 16.18L99.4199 9.54C99.5666 9.07333 99.6333 8.8 99.6199 8.72C99.6199 8.64 99.5133 8.58667 99.2999 8.56L98.1999 8.42V7.86H102.02V8.42L100.92 8.56C100.787 8.57333 100.68 8.6 100.6 8.64C100.533 8.68 100.473 8.76667 100.42 8.9C100.367 9.02 100.287 9.23333 100.18 9.54ZM110.493 15.62C110.253 16.5533 109.806 17.22 109.153 17.62C108.5 18.0067 107.74 18.2 106.873 18.2C105.273 18.2 104.073 17.74 103.273 16.82C102.473 15.8867 102.073 14.6533 102.073 13.12V12.72C102.073 11.1867 102.446 9.96 103.193 9.04C103.953 8.12 105.046 7.66 106.473 7.66C107.273 7.66 107.98 7.82 108.593 8.14C109.22 8.44667 109.706 8.89333 110.053 9.48C110.413 10.0667 110.593 10.78 110.593 11.62C110.593 11.82 110.58 12.0333 110.553 12.26C110.54 12.4867 110.506 12.7133 110.453 12.94H104.533V13.52C104.533 14.9333 104.733 15.9533 105.133 16.58C105.533 17.1933 106.18 17.5 107.073 17.5C107.646 17.5 108.133 17.3333 108.533 17C108.933 16.6533 109.16 16.0733 109.213 15.26L110.493 15.62ZM106.473 8.36C105.82 8.36 105.333 8.66 105.013 9.26C104.693 9.86 104.533 10.8533 104.533 12.24H108.153C108.206 11.9733 108.24 11.7267 108.253 11.5C108.28 11.26 108.293 11.04 108.293 10.84C108.293 9.98667 108.126 9.36 107.793 8.96C107.46 8.56 107.02 8.36 106.473 8.36Z" fill="white"/>
</svg>
